<?xml version="1.0" encoding="utf-8"?>
<!-- Generator: Adobe Illustrator 17.0.0, SVG Export Plug-In . SVG Version: 6.00 Build 0)  -->
<!DOCTYPE svg PUBLIC "-//W3C//DTD SVG 1.1//EN" "http://www.w3.org/Graphics/SVG/1.1/DTD/svg11.dtd">
<svg version="1.1" id="Layer_1" xmlns="http://www.w3.org/2000/svg" xmlns:xlink="http://www.w3.org/1999/xlink" x="0px" y="0px"
	 width="76px" height="45px" viewBox="0 0 76 45" enable-background="new 0 0 76 45" xml:space="preserve">
<g>
	<g>
		<g>
			<g>
				<defs>
					<path id="SVGID_1_" d="M53.857,0h-0.005c-2.988,0-5.565,1.709-6.822,4.21L36.766,24.035c-1.148-2.038-2.972-3.639-5.176-4.503
						c2.461-1.779,4.064-4.68,4.064-7.953c0-3.791-2.153-7.077-5.305-8.705c-2.774-1.46-5.941-2.284-9.3-2.284H5.706
						C2.549,0.59,0,3.141,0,6.293v28.559C0,38,2.549,40.552,5.706,40.552h5.542h11.055c3.2,0,6.245-0.661,9.01-1.846l1.051-0.507
						c0.059-0.029,0.116-0.061,0.173-0.088c0.997,1.653,2.805,2.765,4.883,2.765c2.307,0,4.298-1.37,5.195-3.349
						c0.447-1.043,1.454-1.782,2.646-1.839h17.195c1.194,0.057,2.199,0.797,2.646,1.839c0.895,1.977,2.886,3.349,5.195,3.349
						c3.154,0,5.702-2.556,5.702-5.697c0-1.022-0.264-1.981-0.737-2.805L60.684,4.21C59.427,1.709,56.851,0,53.862,0
						C53.862,0,53.857,0,53.857,0z"/>
				</defs>
				<use xlink:href="#SVGID_1_"  overflow="visible" fill="#333333"/>
				<clipPath id="SVGID_2_">
					<use xlink:href="#SVGID_1_"  overflow="visible"/>
				</clipPath>
				<rect x="-0.001" y="0" clip-path="url(#SVGID_2_)" fill="#333333" width="76.001" height="40.878"/>
			</g>
		</g>
	</g>
</g>
</svg>
