<?xml version="1.0" encoding="utf-8"?>
<!-- Generator: Adobe Illustrator 17.0.0, SVG Export Plug-In . SVG Version: 6.00 Build 0)  -->
<!DOCTYPE svg PUBLIC "-//W3C//DTD SVG 1.1//EN" "http://www.w3.org/Graphics/SVG/1.1/DTD/svg11.dtd">
<svg version="1.1" id="Layer_1" xmlns="http://www.w3.org/2000/svg" xmlns:xlink="http://www.w3.org/1999/xlink" x="0px" y="0px"
	 width="92.779px" height="64.883px" viewBox="0 0 92.779 64.883" enable-background="new 0 0 92.779 64.883" xml:space="preserve">
<g>
	<g>
		<g>
			<defs>
				<path id="SVGID_1_" d="M63.739,4.84h-0.006c-3.492,0-6.504,1.998-7.974,4.921L43.763,32.933
					c-1.342-2.382-3.474-4.253-6.05-5.263c2.877-2.079,4.75-5.47,4.75-9.296c0-4.431-2.517-8.272-6.201-10.174
					c-3.242-1.707-6.944-2.67-10.87-2.67H7.459c-3.69,0-6.669,2.981-6.669,6.665v33.38c0,3.68,2.979,6.663,6.669,6.663h6.478h12.921
					c3.74,0,7.299-0.773,10.531-2.158l1.229-0.593c0.069-0.034,0.135-0.071,0.202-0.103c1.165,1.932,3.278,3.232,5.707,3.232
					c2.697,0,5.024-1.601,6.072-3.914c0.523-1.219,1.7-2.083,3.093-2.15H73.79c1.395,0.067,2.57,0.931,3.093,2.15
					c1.046,2.311,3.373,3.914,6.072,3.914c3.686,0,6.665-2.988,6.665-6.659c0-1.195-0.309-2.315-0.862-3.278L71.719,9.761
					c-1.47-2.923-4.481-4.921-7.974-4.921C63.745,4.84,63.739,4.84,63.739,4.84z"/>
			</defs>
			<clipPath id="SVGID_2_">
				<use xlink:href="#SVGID_1_"  overflow="visible"/>
			</clipPath>
			
				<linearGradient id="SVGID_3_" gradientUnits="userSpaceOnUse" x1="-1041.0924" y1="510.291" x2="-1040.6564" y2="510.291" gradientTransform="matrix(-3.000000e-06 -69.3731 -69.3731 3.000000e-06 35445.668 -72174.4375)">
				<stop  offset="0" style="stop-color:#27B7EA"/>
				<stop  offset="0.0295" style="stop-color:#1ABBEC"/>
				<stop  offset="0.0875" style="stop-color:#3DC4E1"/>
				<stop  offset="0.1676" style="stop-color:#82CFCC"/>
				<stop  offset="0.2124" style="stop-color:#AADAC3"/>
				<stop  offset="0.3102" style="stop-color:#C9E3B6"/>
				<stop  offset="0.4164" style="stop-color:#EDEFA6"/>
				<stop  offset="0.5128" style="stop-color:#EFEA92"/>
				<stop  offset="0.7085" style="stop-color:#F4E162"/>
				<stop  offset="0.9837" style="stop-color:#FBD115"/>
				<stop  offset="1" style="stop-color:#FAD012"/>
				<stop  offset="1" style="stop-color:#FAD704"/>
			</linearGradient>
			<rect x="0.789" y="4.84" clip-path="url(#SVGID_2_)" fill="url(#SVGID_3_)" width="88.831" height="47.779"/>
		</g>
	</g>
</g>
</svg>
